<svg xmlns="http://www.w3.org/2000/svg" viewBox="0 0 96 96" width="96" height="96" shape-rendering="crispEdges">
  <title>Виктор Пелевин</title>
  <rect width="96" height="96" fill="#1f1410"/>
  <!-- gold frame -->
  <rect x="0" y="0" width="96" height="4" fill="#fbbf24"/>
  <rect x="0" y="92" width="96" height="4" fill="#fbbf24"/>
  <rect x="0" y="0" width="4" height="96" fill="#fbbf24"/>
  <rect x="92" y="0" width="4" height="96" fill="#fbbf24"/>
  <!-- hair -->
  <rect x="32" y="12" width="32" height="4" fill="#16100a"/>
  <rect x="28" y="16" width="40" height="4" fill="#16100a"/>
  <rect x="24" y="20" width="48" height="4" fill="#16100a"/>
  <rect x="20" y="24" width="52" height="4" fill="#16100a"/>
  <rect x="16" y="28" width="16" height="4" fill="#16100a"/>
  <rect x="64" y="28" width="16" height="4" fill="#16100a"/>
  <rect x="16" y="32" width="12" height="4" fill="#16100a"/>
  <rect x="68" y="32" width="12" height="4" fill="#16100a"/>
  <!-- face -->
  <rect x="32" y="28" width="32" height="4" fill="#d4a07a"/>
  <rect x="28" y="32" width="40" height="4" fill="#d4a07a"/>
  <!-- sunglasses -->
  <rect x="20" y="36" width="56" height="8" fill="#000000"/>
  <rect x="40" y="36" width="4" height="4" fill="#d4a07a"/>
  <!-- under glasses -->
  <rect x="20" y="44" width="56" height="4" fill="#d4a07a"/>
  <rect x="24" y="48" width="48" height="4" fill="#d4a07a"/>
  <rect x="28" y="52" width="40" height="4" fill="#d4a07a"/>
  <rect x="36" y="52" width="4" height="4" fill="#a67050"/>
  <rect x="56" y="52" width="4" height="4" fill="#a67050"/>
  <rect x="44" y="56" width="8" height="4" fill="#a67050"/>
  <rect x="32" y="56" width="32" height="4" fill="#d4a07a"/>
  <rect x="44" y="56" width="8" height="4" fill="#a67050"/>
  <!-- mouth -->
  <rect x="36" y="60" width="24" height="4" fill="#d4a07a"/>
  <rect x="40" y="60" width="16" height="4" fill="#a67050"/>
  <!-- chin -->
  <rect x="36" y="64" width="24" height="4" fill="#d4a07a"/>
  <rect x="40" y="68" width="16" height="4" fill="#d4a07a"/>
  <!-- shirt -->
  <rect x="20" y="72" width="56" height="4" fill="#c8b88a"/>
  <rect x="16" y="76" width="64" height="4" fill="#c8b88a"/>
  <rect x="12" y="80" width="72" height="4" fill="#c8b88a"/>
  <rect x="40" y="80" width="16" height="4" fill="#8a7a4c"/>
  <rect x="44" y="80" width="4" height="4" fill="#5a4a2c"/>
  <rect x="52" y="80" width="4" height="4" fill="#5a4a2c"/>
  <rect x="12" y="84" width="72" height="4" fill="#c8b88a"/>
</svg>
